<?xml version="1.0" encoding="UTF-8" standalone="no"?>
<svg
   xmlns:dc="http://purl.org/dc/elements/1.1/"
   xmlns:cc="http://creativecommons.org/ns#"
   xmlns:rdf="http://www.w3.org/1999/02/22-rdf-syntax-ns#"
   xmlns:svg="http://www.w3.org/2000/svg"
   xmlns="http://www.w3.org/2000/svg"
   viewBox="0 0 300 200"
   height="200"
   width="300"
   xml:space="preserve"
   id="svg825"
   version="1.1"><metadata
     id="metadata831"><rdf:RDF><cc:Work
         rdf:about=""><dc:format>image/svg+xml</dc:format><dc:type
           rdf:resource="http://purl.org/dc/dcmitype/StillImage" /><dc:title></dc:title></cc:Work></rdf:RDF></metadata><defs
     id="defs829"><clipPath
       id="clipPath841"
       clipPathUnits="userSpaceOnUse"><path
         id="path839"
         d="M 0,1501.856 H 1417.32 V 0 H 0 Z" /></clipPath><clipPath
       id="clipPath849"
       clipPathUnits="userSpaceOnUse"><path
         id="path847"
         d="M 278.086,958.896 H 561.11 V 847.305 H 278.086 Z" /></clipPath><clipPath
       id="clipPath865"
       clipPathUnits="userSpaceOnUse"><path
         id="path863"
         d="M 885.495,892.29 H 1218.94 V 706.177 H 885.495 Z" /></clipPath><linearGradient
       id="linearGradient1023"
       spreadMethod="pad"
       gradientTransform="matrix(0,179.90276,179.90276,0,499.31754,635.23962)"
       gradientUnits="userSpaceOnUse"
       y2="0"
       x2="1"
       y1="0"
       x1="0"><stop
         id="stop1019"
         offset="0"
         style="stop-opacity:1;stop-color:#a0a200" /><stop
         id="stop1021"
         offset="1"
         style="stop-opacity:1;stop-color:#008f4c" /></linearGradient><linearGradient
       id="linearGradient1043"
       spreadMethod="pad"
       gradientTransform="matrix(0,55.369465,55.369465,0,705.42877,654.57294)"
       gradientUnits="userSpaceOnUse"
       y2="0"
       x2="1"
       y1="0"
       x1="0"><stop
         id="stop1039"
         offset="0"
         style="stop-opacity:1;stop-color:#a0a200" /><stop
         id="stop1041"
         offset="1"
         style="stop-opacity:1;stop-color:#008f4c" /></linearGradient><linearGradient
       id="linearGradient1063"
       spreadMethod="pad"
       gradientTransform="matrix(0,179.90276,179.90276,0,922.26501,635.23962)"
       gradientUnits="userSpaceOnUse"
       y2="0"
       x2="1"
       y1="0"
       x1="0"><stop
         id="stop1059"
         offset="0"
         style="stop-opacity:1;stop-color:#a0a200" /><stop
         id="stop1061"
         offset="1"
         style="stop-opacity:1;stop-color:#008f4c" /></linearGradient><clipPath
       id="clipPath1073"
       clipPathUnits="userSpaceOnUse"><path
         id="path1071"
         d="M 0,1501.856 H 1417.32 V 0 H 0 Z" /></clipPath><clipPath
       id="clipPath1081"
       clipPathUnits="userSpaceOnUse"><path
         id="path1079"
         d="M 368.122,822.863 H 635.511 V 658.258 H 368.122 Z" /></clipPath><clipPath
       id="clipPath1085"
       clipPathUnits="userSpaceOnUse"><path
         id="path1083"
         d="m 477.38,705.146 h 53.568 V 658.258 H 477.38 Z" /></clipPath><clipPath
       id="clipPath1089"
       clipPathUnits="userSpaceOnUse"><path
         id="path1087"
         d="m 368.122,694.009 h 34 v -31.572 h -34 z" /></clipPath><clipPath
       id="clipPath1093"
       clipPathUnits="userSpaceOnUse"><path
         id="path1091"
         d="m 418.519,764.39 h 74.689 v -54.949 h -74.689 z" /></clipPath><clipPath
       id="clipPath1097"
       clipPathUnits="userSpaceOnUse"><path
         id="path1095"
         d="M 518.406,822.863 H 635.511 V 701.515 H 518.406 Z" /></clipPath><clipPath
       id="clipPath1157"
       clipPathUnits="userSpaceOnUse"><path
         id="path1155"
         d="M 807.356,750.378 H 1026.96 V 670.389 H 807.356 Z" /></clipPath><clipPath
       id="clipPath1161"
       clipPathUnits="userSpaceOnUse"><path
         id="path1159"
         d="m 932.764,733.392 h 94.196 v -45.826 h -94.196 z" /></clipPath><clipPath
       id="clipPath1165"
       clipPathUnits="userSpaceOnUse"><path
         id="path1163"
         d="m 807.356,750.378 h 78.139 v -79.989 h -78.139 z" /></clipPath><linearGradient
       id="linearGradient1267"
       spreadMethod="pad"
       gradientTransform="matrix(0,-189.09521,-189.09521,0,702.586,665.28442)"
       gradientUnits="userSpaceOnUse"
       y2="0"
       x2="1"
       y1="0"
       x1="0"><stop
         id="stop1263"
         offset="0"
         style="stop-opacity:1;stop-color:#0068cb" /><stop
         id="stop1265"
         offset="1"
         style="stop-opacity:1;stop-color:#002a50" /></linearGradient><clipPath
       id="clipPath1277"
       clipPathUnits="userSpaceOnUse"><path
         id="path1275"
         d="M 0,1501.856 H 1417.32 V 0 H 0 Z" /></clipPath><clipPath
       id="clipPath1285"
       clipPathUnits="userSpaceOnUse"><path
         id="path1283"
         d="m 378.059,647.817 h 262 v -6 h -262 z" /></clipPath><clipPath
       id="clipPath1301"
       clipPathUnits="userSpaceOnUse"><path
         id="path1299"
         d="m 556.64,628.237 h 160.657 v -3 H 556.64 Z" /></clipPath><clipPath
       id="clipPath1317"
       clipPathUnits="userSpaceOnUse"><path
         id="path1315"
         d="m 810.987,587.752 h 160.657 v -3 H 810.987 Z" /></clipPath><clipPath
       id="clipPath1333"
       clipPathUnits="userSpaceOnUse"><path
         id="path1331"
         d="m 705.008,569.028 h 160.656 v -3 H 705.008 Z" /></clipPath><clipPath
       id="clipPath1349"
       clipPathUnits="userSpaceOnUse"><path
         id="path1347"
         d="m 464.302,552.2 h 160.656 v -3 H 464.302 Z" /></clipPath><clipPath
       id="clipPath1365"
       clipPathUnits="userSpaceOnUse"><path
         id="path1363"
         d="M 0,1501.856 H 1417.32 V 0 H 0 Z" /></clipPath></defs><g
     transform="matrix(1.3333333,0,0,-1.3333333,0,200.00002)"
     id="g833"><g
       transform="matrix(0.20385219,0,0,0.20385219,-38.752333,-73.838844)"
       id="g835"><g
         clip-path="url(#clipPath841)"
         id="g837"><g
           id="g843"><g
             id="g845" /><g
             id="g857"><g
               style="opacity:0.19999701"
               id="g855"
               clip-path="url(#clipPath849)"><g
                 id="g853"
                 transform="translate(561.1104,865.8398)"><path
                   id="path851"
                   style="fill:#8ad0bf;fill-opacity:1;fill-rule:nonzero;stroke:none"
                   d="m 0,0 c 0,10.279 -8.333,18.612 -18.611,18.612 h -31.292 c -10.278,0 -18.611,8.332 -18.611,18.611 0,10.279 8.333,18.611 18.611,18.611 h 24.337 c 10.279,0 18.611,8.333 18.611,18.611 0,10.279 -8.332,18.612 -18.611,18.612 h -176.583 c -10.279,0 -18.612,-8.333 -18.612,-18.612 0,-10.278 8.333,-18.611 18.612,-18.611 h 67.999 c 10.278,0 18.611,-8.332 18.611,-18.611 0,-10.279 -8.333,-18.611 -18.611,-18.611 h -130.263 c -10.278,0 -18.611,-8.333 -18.611,-18.612 0,-9.723 7.458,-17.701 16.965,-18.535 H -16.966 C -7.458,-17.701 0,-9.723 0,0" /></g></g></g></g><g
           id="g859"><g
             id="g861" /><g
             id="g877"><g
               style="opacity:0.19999701"
               id="g875"
               clip-path="url(#clipPath865)"><g
                 id="g869"
                 transform="translate(1149.9072,817.8452)"><path
                   id="path867"
                   style="fill:#8ad0bf;fill-opacity:1;fill-rule:nonzero;stroke:none"
                   d="m 0,0 h -31.291 c -10.278,0 -18.611,8.333 -18.611,18.611 0,10.279 8.333,18.611 18.611,18.611 h 24.336 c 10.279,0 18.612,8.333 18.612,18.611 0,10.279 -8.333,18.612 -18.612,18.612 h -176.583 c -10.278,0 -18.611,-8.333 -18.611,-18.612 0,-10.278 8.333,-18.611 18.611,-18.611 h 67.999 c 10.278,0 18.611,-8.332 18.611,-18.611 C -96.928,8.333 -105.261,0 -115.539,0 h -130.262 c -10.279,0 -18.611,-8.333 -18.611,-18.611 0,-10.279 8.332,-18.612 18.611,-18.612 h 86.001 c 10.279,0 18.612,-8.332 18.612,-18.611 0,-10.279 -8.333,-18.611 -18.612,-18.611 h -19.454 c -10.278,0 -18.611,-8.333 -18.611,-18.612 0,-10.278 8.333,-18.611 18.611,-18.611 h 121.21 c 10.279,0 18.611,8.333 18.611,18.611 0,10.279 -8.332,18.612 -18.611,18.612 h -17.508 c -10.279,0 -18.611,8.332 -18.611,18.611 0,10.279 8.332,18.611 18.611,18.611 H 0 c 10.278,0 18.611,8.333 18.611,18.612 C 18.611,-8.333 10.278,0 0,0" /></g><g
                 id="g873"
                 transform="translate(1200.3271,817.8447)"><path
                   id="path871"
                   style="fill:#8ad0bf;fill-opacity:1;fill-rule:nonzero;stroke:none"
                   d="m 0,0 c -10.278,0 -18.611,-8.333 -18.611,-18.612 0,-10.278 8.333,-18.611 18.611,-18.611 10.278,0 18.611,8.333 18.611,18.611 C 18.611,-8.333 10.278,0 0,0" /></g></g></g></g><g
           transform="translate(936.0293,808.5439)"
           id="g879"><path
             id="path881"
             style="fill:#ffffff;fill-opacity:1;fill-rule:nonzero;stroke:none"
             d="m 0,0 c -41.478,30.844 -88.754,-21.795 -130.231,9.048 2.013,28.987 4.027,57.974 6.041,86.961 C -82.713,65.166 -35.436,117.805 6.042,86.961 4.028,57.975 2.014,28.987 0,0" /></g><g
           transform="translate(936.0293,808.5439)"
           id="g883"><path
             id="path885"
             style="fill:none;stroke:#000000;stroke-width:4.98500013;stroke-linecap:round;stroke-linejoin:round;stroke-miterlimit:10;stroke-dasharray:none;stroke-opacity:1"
             d="m 0,0 c -41.478,30.844 -88.754,-21.795 -130.231,9.048 2.013,28.987 4.027,57.974 6.041,86.961 C -82.713,65.166 -35.436,117.805 6.042,86.961 4.028,57.975 2.014,28.987 0,0 Z" /></g><g
           transform="translate(935.9814,722.1016)"
           id="g887"><path
             id="path889"
             style="fill:#f5b619;fill-opacity:1;fill-rule:nonzero;stroke:none"
             d="M 0,0 -5.929,0.412 C -7.302,0.507 -8.338,1.698 -8.242,3.071 L 4.776,190.46 c 0.046,0.659 0.352,1.273 0.851,1.707 0.455,0.396 1.036,0.613 1.636,0.613 0.057,0 0.115,-0.002 0.173,-0.007 l 5.928,-0.412 c 1.373,-0.095 2.409,-1.285 2.314,-2.659 L 2.659,2.313 C 2.613,1.654 2.308,1.04 1.809,0.606 1.354,0.21 0.772,-0.006 0.173,-0.006 0.115,-0.006 0.058,-0.004 0,0" /></g><g
           transform="translate(943.2393,917.3735)"
           id="g891"><path
             id="path893"
             style="fill:#000000;fill-opacity:1;fill-rule:nonzero;stroke:none"
             d="m 0,0 c -2.597,0 -4.786,-2.011 -4.969,-4.64 l -13.018,-187.388 c -0.092,-1.319 0.344,-2.62 1.213,-3.618 0.867,-0.998 2.095,-1.609 3.415,-1.701 l 5.928,-0.412 c 0.119,-0.008 0.235,-0.012 0.351,-0.012 2.596,0 4.785,2.011 4.968,4.64 L 10.906,-5.743 c 0.092,1.32 -0.343,2.621 -1.212,3.618 -0.868,0.998 -2.096,1.609 -3.415,1.701 L 0.351,-0.012 C 0.232,-0.004 0.115,0 0,0 m 0.005,-4.985 5.929,-0.412 -13.019,-187.389 -5.929,0.412 13.019,187.389" /></g><g
           transform="translate(954.4131,911.0063)"
           id="g895"><path
             id="path897"
             style="fill:#f5b619;fill-opacity:1;fill-rule:nonzero;stroke:none"
             d="m 0,0 c -0.316,-4.555 -4.265,-7.99 -8.819,-7.674 -4.555,0.317 -7.991,4.265 -7.674,8.82 0.316,4.554 4.264,7.99 8.819,7.673 C -3.119,8.503 0.316,4.555 0,0" /></g><g
           transform="translate(954.4131,911.0063)"
           id="g899"><path
             id="path901"
             style="fill:none;stroke:#000000;stroke-width:4.98500013;stroke-linecap:round;stroke-linejoin:round;stroke-miterlimit:10;stroke-dasharray:none;stroke-opacity:1"
             d="m 0,0 c -0.316,-4.555 -4.265,-7.99 -8.819,-7.674 -4.555,0.317 -7.991,4.265 -7.674,8.82 0.316,4.554 4.264,7.99 8.819,7.673 C -3.119,8.503 0.316,4.555 0,0 Z" /></g><g
           transform="translate(908.5264,835.7666)"
           id="g903"><path
             id="path905"
             style="fill:#232020;fill-opacity:1;fill-rule:nonzero;stroke:none"
             d="M 0,0 -2.347,2.844 5.492,9.084 7.839,6.24 Z" /></g><g
           transform="translate(899.2344,828.4536)"
           id="g907"><path
             id="path909"
             style="fill:#232020;fill-opacity:1;fill-rule:nonzero;stroke:none"
             d="M 0,0 -2.347,2.844 5.492,9.084 7.839,6.24 Z" /></g><g
           transform="translate(912.0605,831.4326)"
           id="g911"><path
             id="path913"
             style="fill:#232020;fill-opacity:1;fill-rule:nonzero;stroke:none"
             d="M 0,0 -2.347,2.844 5.492,9.084 7.839,6.24 Z" /></g><g
           transform="translate(902.7686,824.1196)"
           id="g915"><path
             id="path917"
             style="fill:#232020;fill-opacity:1;fill-rule:nonzero;stroke:none"
             d="M 0,0 -2.347,2.844 5.492,9.084 7.839,6.24 Z" /></g><g
           transform="translate(904.9941,839.9507)"
           id="g919"><path
             id="path921"
             style="fill:#232020;fill-opacity:1;fill-rule:nonzero;stroke:none"
             d="M 0,0 -2.347,2.844 5.492,9.084 7.839,6.24 Z" /></g><g
           transform="translate(895.7021,832.6372)"
           id="g923"><path
             id="path925"
             style="fill:#232020;fill-opacity:1;fill-rule:nonzero;stroke:none"
             d="M 0,0 -2.347,2.844 5.492,9.084 7.839,6.24 Z" /></g><g
           transform="translate(840.082,834.0962)"
           id="g927"><path
             id="path929"
             style="fill:#232020;fill-opacity:1;fill-rule:nonzero;stroke:none"
             d="M 0,0 3.204,1.836 -1.967,10.505 -5.172,8.669 Z" /></g><g
           transform="translate(830.5,828.6094)"
           id="g931"><path
             id="path933"
             style="fill:#232020;fill-opacity:1;fill-rule:nonzero;stroke:none"
             d="M 0,0 3.204,1.835 -1.967,10.504 -5.172,8.669 Z" /></g><g
           transform="translate(835.2197,831.314)"
           id="g935"><path
             id="path937"
             style="fill:#232020;fill-opacity:1;fill-rule:nonzero;stroke:none"
             d="M 0,0 3.204,1.835 -1.967,10.504 -5.171,8.669 Z" /></g><g
           transform="translate(846.1611,823.9189)"
           id="g939"><path
             id="path941"
             style="fill:#232020;fill-opacity:1;fill-rule:nonzero;stroke:none"
             d="m 0,0 3.204,1.835 -6.841,11.47 -2.951,-2.262 z" /></g><g
           transform="translate(836.5791,818.4316)"
           id="g943"><path
             id="path945"
             style="fill:#232020;fill-opacity:1;fill-rule:nonzero;stroke:none"
             d="M 0,0 3.205,1.835 -3.509,13.09 -6.53,10.948 Z" /></g><g
           transform="translate(841.2988,821.1362)"
           id="g947"><path
             id="path949"
             style="fill:#232020;fill-opacity:1;fill-rule:nonzero;stroke:none"
             d="M 0,0 3.204,1.835 -1.967,10.504 -5.172,8.669 Z" /></g><g
           transform="translate(836.0771,880.7832)"
           id="g951"><path
             id="path953"
             style="fill:#232020;fill-opacity:1;fill-rule:nonzero;stroke:none"
             d="m 0,0 2.313,-2.86 7.935,6.187 -2.312,2.86 z" /></g><g
           transform="translate(826.7256,873.4858)"
           id="g955"><path
             id="path957"
             style="fill:#232020;fill-opacity:1;fill-rule:nonzero;stroke:none"
             d="M 0,0 2.313,-2.86 11.818,4.552 9.352,7.297 Z" /></g><g
           transform="translate(842.9932,872.2324)"
           id="g959"><path
             id="path961"
             style="fill:#232020;fill-opacity:1;fill-rule:nonzero;stroke:none"
             d="M 0,0 2.313,-2.86 10.248,3.326 7.936,6.187 Z" /></g><g
           transform="translate(833.6416,864.9351)"
           id="g963"><path
             id="path965"
             style="fill:#232020;fill-opacity:1;fill-rule:nonzero;stroke:none"
             d="m 0,0 2.313,-2.86 9.351,7.297 -1.447,3.529 z" /></g><g
           transform="translate(830.2158,869.1362)"
           id="g967"><path
             id="path969"
             style="fill:#232020;fill-opacity:1;fill-rule:nonzero;stroke:none"
             d="m 0,0 2.313,-2.86 17.313,13.498 -2.314,2.861 z" /></g><g
           transform="translate(913.8379,886.0479)"
           id="g971"><path
             id="path973"
             style="fill:#232020;fill-opacity:1;fill-rule:nonzero;stroke:none"
             d="M 0,0 -3.135,-1.924 -8.55,6.557 -5.415,8.481 Z" /></g><g
           transform="translate(920.2168,876.0474)"
           id="g975"><path
             id="path977"
             style="fill:#232020;fill-opacity:1;fill-rule:nonzero;stroke:none"
             d="m 0,0 -3.135,-1.924 -5.414,8.481 3.135,1.924 z" /></g><g
           transform="translate(904.4639,880.2964)"
           id="g979"><path
             id="path981"
             style="fill:#232020;fill-opacity:1;fill-rule:nonzero;stroke:none"
             d="M 0,0 -3.135,-1.924 -8.55,6.557 -5.414,8.481 Z" /></g><g
           transform="translate(910.8428,870.2959)"
           id="g983"><path
             id="path985"
             style="fill:#232020;fill-opacity:1;fill-rule:nonzero;stroke:none"
             d="m 0,0 -3.135,-1.924 -5.414,8.481 3.135,1.924 z" /></g><g
           transform="translate(915.4746,873.1123)"
           id="g987"><path
             id="path989"
             style="fill:#232020;fill-opacity:1;fill-rule:nonzero;stroke:none"
             d="m 0,0 -3.136,-1.924 -11.812,18.504 3.135,1.924 z" /></g><g
           transform="translate(888.3838,857.8608)"
           id="g991"><path
             id="path993"
             style="fill:#0072ba;fill-opacity:1;fill-rule:nonzero;stroke:none"
             d="m 0,0 c -4.394,2.451 -9.942,0.875 -12.394,-3.52 l -0.007,0.005 c -2.452,-4.394 -8,-5.969 -12.394,-3.518 -4.332,2.415 -5.922,7.842 -3.617,12.205 -1.756,-3.228 -2.565,-7.026 -2.064,-10.993 1.169,-9.266 9.33,-16.221 18.664,-15.911 6.737,0.224 12.431,4.04 15.411,9.489 C 5.932,-7.873 4.345,-2.423 0,0" /></g><g
           transform="translate(860.0576,863.1982)"
           id="g995"><path
             id="path997"
             style="fill:#ed2324;fill-opacity:1;fill-rule:nonzero;stroke:none"
             d="m 0,0 c -0.03,-0.055 -0.058,-0.11 -0.086,-0.165 0.04,0.075 0.079,0.15 0.121,0.224 C 0.023,0.039 0.011,0.02 0,0" /></g><g
           transform="translate(891.9141,845.4878)"
           id="g999"><path
             id="path1001"
             style="fill:#ed2324;fill-opacity:1;fill-rule:nonzero;stroke:none"
             d="M 0,0 C 0.064,0.116 0.126,0.234 0.187,0.352 0.148,0.277 0.108,0.204 0.068,0.13 0.045,0.087 0.024,0.043 0,0" /></g><g
           transform="translate(874.6426,872.5176)"
           id="g1003"><path
             id="path1005"
             style="fill:#ed2324;fill-opacity:1;fill-rule:nonzero;stroke:none"
             d="M 0,0 C -0.362,-0.027 -0.72,-0.067 -1.075,-0.114 -1.186,-0.129 -1.294,-0.147 -1.402,-0.164 -1.652,-0.201 -1.9,-0.243 -2.146,-0.291 -2.264,-0.314 -2.382,-0.337 -2.499,-0.363 -2.751,-0.417 -3,-0.477 -3.248,-0.541 c -0.095,-0.024 -0.19,-0.047 -0.284,-0.073 -0.337,-0.093 -0.67,-0.194 -0.999,-0.305 -0.047,-0.017 -0.093,-0.036 -0.141,-0.052 -0.281,-0.098 -0.558,-0.203 -0.833,-0.314 -0.101,-0.041 -0.201,-0.084 -0.301,-0.127 -0.224,-0.096 -0.446,-0.195 -0.665,-0.299 -0.1,-0.048 -0.201,-0.096 -0.3,-0.145 -0.241,-0.12 -0.478,-0.246 -0.712,-0.375 -0.066,-0.037 -0.132,-0.07 -0.197,-0.107 -0.298,-0.171 -0.591,-0.349 -0.878,-0.535 -0.056,-0.037 -0.111,-0.076 -0.168,-0.113 -0.228,-0.152 -0.454,-0.309 -0.674,-0.471 -0.084,-0.061 -0.167,-0.124 -0.25,-0.187 -0.196,-0.148 -0.388,-0.3 -0.578,-0.456 -0.078,-0.065 -0.156,-0.128 -0.233,-0.194 -0.229,-0.196 -0.455,-0.396 -0.675,-0.603 -0.026,-0.025 -0.054,-0.049 -0.081,-0.074 -0.249,-0.238 -0.491,-0.483 -0.726,-0.734 -0.05,-0.054 -0.098,-0.109 -0.148,-0.163 -0.181,-0.198 -0.359,-0.4 -0.532,-0.607 -0.062,-0.073 -0.122,-0.148 -0.183,-0.222 -0.165,-0.203 -0.325,-0.41 -0.481,-0.62 -0.05,-0.068 -0.101,-0.134 -0.151,-0.202 -0.402,-0.558 -0.774,-1.139 -1.112,-1.741 -0.042,-0.074 -0.081,-0.15 -0.121,-0.224 -2.305,-4.364 -0.715,-9.79 3.617,-12.206 4.394,-2.451 9.943,-0.876 12.394,3.518 l 0.008,-0.004 c 2.451,4.394 8,5.97 12.393,3.519 4.345,-2.423 5.932,-7.873 3.599,-12.242 0.04,0.073 0.08,0.147 0.119,0.221 0.083,0.156 0.163,0.314 0.241,0.472 0.068,0.137 0.134,0.273 0.197,0.411 0.052,0.112 0.102,0.225 0.152,0.338 0.056,0.13 0.112,0.261 0.166,0.393 0.044,0.108 0.09,0.217 0.132,0.327 0.085,0.22 0.167,0.443 0.244,0.667 0.032,0.093 0.06,0.187 0.091,0.281 0.05,0.158 0.1,0.316 0.148,0.476 0.031,0.105 0.061,0.212 0.09,0.318 0.046,0.166 0.088,0.332 0.129,0.499 0.021,0.09 0.045,0.179 0.065,0.269 0.057,0.246 0.108,0.494 0.154,0.743 0.015,0.083 0.028,0.167 0.042,0.25 0.031,0.187 0.06,0.374 0.086,0.563 0.013,0.092 0.026,0.185 0.037,0.278 0.026,0.216 0.048,0.434 0.067,0.652 0.005,0.053 0.011,0.105 0.015,0.158 0.02,0.268 0.034,0.538 0.043,0.808 0.002,0.062 0.003,0.124 0.004,0.186 0.002,0.225 0.004,0.449 10e-4,0.674 -10e-4,0.082 -10e-4,0.163 -0.004,0.245 -0.008,0.279 -0.02,0.559 -0.04,0.84 C 18.776,-6.792 10.037,0.742 0,0" /></g></g></g><g
       transform="matrix(0.20385219,0,0,0.20385219,-38.752333,-73.838844)"
       id="g1007"><g
         id="g1009"><g
           id="g1015"><g
             id="g1017"><path
               id="path1025"
               style="fill:url(#linearGradient1023);stroke:none"
               d="m 550.1,816.042 c -2.7,-5.049 -13.726,-11.223 -17.723,-8.953 v 0 c -6.071,3.451 -11.41,2.339 -16.976,-1.873 v 0 c -2.742,-2.076 -6.144,-2.463 -9.082,-4.148 v 0 c -7.567,-4.339 -16.458,-6.84 -22.251,-13.951 v 0 C 473.06,773.603 464.323,756.72 453.704,742.54 v 0 c -6.285,-8.394 -13.774,-16.131 -21.769,-20.923 v 0 c -15.645,-9.375 -23.836,-25.838 -29.621,-47.054 v 0 c -7.418,5.959 -13.436,17.102 -23.99,19.037 v 0 c -4.756,0.871 -7.601,0.875 -10.407,-3.996 v 0 c -1.856,-3.224 -3.965,-6.204 -5.652,-9.581 v 0 c -7.343,-14.704 -16.801,-23.619 -30.534,-21.894 v 0 c -2.586,0.324 -5.255,-0.576 -7.887,-0.911 v 0 c 0.008,-0.123 0.014,-0.245 0.02,-0.368 v 0 c 111.548,1.023 237.898,3.755 350.927,4.791 v 0 c -7.382,17.643 -23.296,36.696 -37.822,46.151 v 0 c -0.922,0.6 -1.829,2.942 -1.763,4.389 v 0 c 0.653,14.114 -9.506,15.285 -14.567,22.403 v 0 c -3.652,5.139 -11.179,7.66 -12.283,13.112 v 0 c -1.908,9.416 -7.526,14.654 -11.482,18.523 v 0 c -14.405,14.082 -26.225,30.851 -36.353,50.362 v 0 c -2.185,4.208 -3.594,6.282 -5.011,6.282 v 0 c -1.491,-0.001 -2.991,-2.297 -5.41,-6.821" /></g></g></g></g><g
       transform="matrix(0.20385219,0,0,0.20385219,-38.752333,-73.838844)"
       id="g1027"><g
         id="g1029"><g
           id="g1035"><g
             id="g1037"><path
               id="path1045"
               style="fill:url(#linearGradient1043);stroke:none"
               d="m 699.758,684.279 c 0.276,-0.831 -1.611,-3.151 -2.632,-4.598 v 0 c -3.933,-5.575 -7.922,-11.076 -12.921,-18.04 v 0 h 42.447 c -9.963,10.776 -9.202,31.237 -21.399,39.737 v 0 c -2.098,-5.954 -8.39,-8.4 -5.495,-17.099" /></g></g></g></g><g
       transform="matrix(0.20385219,0,0,0.20385219,-38.752333,-73.838844)"
       id="g1047"><g
         id="g1049"><g
           id="g1055"><g
             id="g1057"><path
               id="path1065"
               style="fill:url(#linearGradient1063);stroke:none"
               d="m 903.55,752.478 c -1.18,-0.463 -3.384,0.068 -3.954,1.209 v 0 c -3.2,6.412 -7.567,5.517 -12.094,4.325 v 0 c -0.211,-0.055 -0.435,-0.136 -0.639,-0.094 v 0 c -15.624,3.183 -27.042,-7.421 -37.616,-21.054 v 0 c -3.271,-4.216 -6.733,-8.238 -10.397,-11.797 v 0 c -12.654,-12.29 -22.446,-27.747 -29.128,-46.904 v 0 c -1.526,-4.372 -3.641,-8.361 -5.704,-13.025 v 0 c -2.059,2.331 -3.668,4.152 -5.806,6.574 v 0 c -4.227,-4.376 -8.552,-8.854 -12.876,-13.331 v 0 c 0.1,-0.99 0.2,-1.98 0.301,-2.969 v 0 c 91.177,-0.21 182.356,-0.421 273.535,-0.631 v 0 c 0.01,0.585 0.015,1.171 0.023,1.757 v 0 c -1.203,3.298 -2.683,6.467 -3.55,9.92 v 0 c -1.818,7.241 -3.378,14.556 -10.138,15.842 v 0 c -3.764,13.028 -14.108,9.572 -20.61,15.393 v 0 c -7.231,6.472 -13.546,14.839 -19.269,21.267 v 0 c -4.614,1.257 -8.487,1.855 -12.149,3.389 v 0 c -18.012,7.545 -31.503,23.917 -43.925,42.29 v 0 l -15.49,0.372 C 923.9,760.794 913.756,756.49 903.55,752.478" /></g></g></g></g><g
       transform="matrix(0.20385219,0,0,0.20385219,-38.752333,-73.838844)"
       id="g1067"><g
         clip-path="url(#clipPath1073)"
         id="g1069"><g
           id="g1075"><g
             id="g1077" /><g
             id="g1149"><g
               style="opacity:0.19999701"
               id="g1147"
               clip-path="url(#clipPath1081)"><g
                 id="g1109"><g
                   id="g1099" /><g
                   id="g1107"><g
                     style="opacity:0.78999299"
                     id="g1105"
                     clip-path="url(#clipPath1085)"><g
                       id="g1103"
                       transform="translate(523.1777,687.0117)"><path
                         id="path1101"
                         style="fill:#009251;fill-opacity:1;fill-rule:nonzero;stroke:none"
                         d="m 0,0 c 3.33,4.534 5.55,12.089 7.77,18.134 -4.44,-1.511 -9.99,0 -14.43,-4.533 -4.44,-6.045 -6.66,-15.112 -12.21,-16.623 -12.296,-3.72 -19.547,-14.88 -26.928,-25.731 7.081,0.064 14.163,0.129 21.25,0.194 C -16.646,-18.266 -7.409,-11.207 0,0" /></g></g></g></g><g
                 id="g1121"><g
                   id="g1111" /><g
                   id="g1119"><g
                     style="opacity:0.78999299"
                     id="g1117"
                     clip-path="url(#clipPath1089)"><g
                       id="g1115"
                       transform="translate(371.1089,673.4111)"><path
                         id="path1113"
                         style="fill:#009251;fill-opacity:1;fill-rule:nonzero;stroke:none"
                         d="m 0,0 c 9.99,-3.022 24.42,-21.156 29.97,-3.022 0.461,1.414 0.798,2.862 1.043,4.337 C 23.683,7.312 17.677,18.271 7.215,20.189 6.127,20.388 5.144,20.538 4.234,20.598 -0.934,12.01 -6.602,2.247 0,0" /></g></g></g></g><g
                 id="g1133"><g
                   id="g1123" /><g
                   id="g1131"><g
                     style="opacity:0.78999299"
                     id="g1129"
                     clip-path="url(#clipPath1093)"><g
                       id="g1127"
                       transform="translate(438.8184,717.2349)"><path
                         id="path1125"
                         style="fill:#009251;fill-opacity:1;fill-rule:nonzero;stroke:none"
                         d="m 0,0 c 12.21,-3.022 25.53,-9.067 37.74,-7.556 5.55,1.512 8.88,13.6 16.65,16.623 C 50.546,26.071 36.73,32.892 29.484,47.155 24.745,39.698 20.037,32.184 14.886,25.305 8.6,16.912 1.112,9.174 -6.883,4.382 -12.138,1.233 -16.536,-2.732 -20.3,-7.391 -13.228,-5.29 -6.613,1.125 0,0" /></g></g></g></g><g
                 id="g1145"><g
                   id="g1135" /><g
                   id="g1143"><g
                     style="opacity:0.78999299"
                     id="g1141"
                     clip-path="url(#clipPath1097)"><g
                       id="g1139"
                       transform="translate(635.2065,712.1812)"><path
                         id="path1137"
                         style="fill:#009251;fill-opacity:1;fill-rule:nonzero;stroke:none"
                         d="m 0,0 c 0.653,14.114 -9.506,15.284 -14.568,22.404 -3.652,5.138 -11.179,7.659 -12.283,13.111 -1.908,9.416 -7.525,14.654 -11.482,18.522 -14.404,14.083 -26.224,30.851 -36.353,50.363 -4.482,8.634 -5.702,8.286 -10.421,-0.539 -2.7,-5.049 -13.726,-11.224 -17.722,-8.953 -4.973,2.826 -9.455,2.588 -13.972,0.096 4.46,-7.144 3.835,-16.27 4.772,-26.482 2.22,-27.201 25.53,-39.29 25.53,-69.513 0,-3.022 6.66,-12.089 13.32,-9.067 13.32,6.045 25.53,15.112 38.849,12.089 C -22.499,-0.27 -10.955,-2.177 0.304,-1.921 0.095,-1.248 -0.026,-0.558 0,0" /></g></g></g></g></g></g></g><g
           id="g1151"><g
             id="g1153" /><g
             id="g1193"><g
               style="opacity:0.19999701"
               id="g1191"
               clip-path="url(#clipPath1157)"><g
                 id="g1177"><g
                   id="g1167" /><g
                   id="g1175"><g
                     style="opacity:0.78999299"
                     id="g1173"
                     clip-path="url(#clipPath1161)"><g
                       id="g1171"
                       transform="translate(932.7646,702.1235)"><path
                         id="path1169"
                         style="fill:#009251;fill-opacity:1;fill-rule:nonzero;stroke:none"
                         d="m 0,0 v -6.045 c 21.09,-13.601 43.289,-7.556 65.489,-4.533 9.262,0 19.799,-0.863 28.708,4.652 -0.719,0.424 -1.413,0.911 -2.065,1.496 C 84.901,2.042 78.586,10.408 72.863,16.836 68.25,18.093 64.376,18.691 60.714,20.225 54.339,22.896 48.539,26.689 43.144,31.268 32.828,12.859 13.794,14.755 0,0" /></g></g></g></g><g
                 id="g1189"><g
                   id="g1179" /><g
                   id="g1187"><g
                     style="opacity:0.78999299"
                     id="g1185"
                     clip-path="url(#clipPath1165)"><g
                       id="g1183"
                       transform="translate(883.9248,680.9673)"><path
                         id="path1181"
                         style="fill:#009251;fill-opacity:1;fill-rule:nonzero;stroke:none"
                         d="m 0,0 c 1.11,0 2.22,4.533 1.11,4.533 -5.549,3.023 -12.21,3.023 -13.32,9.067 -3.33,7.556 2.22,15.112 2.22,22.668 0.903,13.522 -9.946,21.045 -12.232,33.143 C -26.611,65.714 -30.704,61.02 -34.678,55.897 -37.949,51.68 -41.41,47.658 -45.074,44.1 -57.729,31.81 -67.521,16.353 -74.203,-2.805 c -0.686,-1.964 -1.5,-3.852 -2.365,-5.758 1.459,-1.247 2.938,-2.015 4.419,-2.015 C -47.729,-6.045 -25.529,-6.045 0,0" /></g></g></g></g></g></g></g><g
           transform="translate(718.8828,866.5547)"
           id="g1195"><path
             id="path1197"
             style="fill:#000000;fill-opacity:1;fill-rule:nonzero;stroke:none"
             d="m 0,0 c -5.392,-4.731 -9.579,-10.08 -12.508,-14.75 -4.568,3.139 -10.752,6.433 -17.898,8.506 -4.953,1.483 -9.608,2.154 -13.654,2.316 l -0.508,-6.459 c 3.966,-0.724 8.521,-1.695 13.32,-3.145 6.085,-1.748 11.628,-3.989 16.094,-5.888 1.496,-0.637 2.87,-1.234 4.104,-1.762 0.868,0.967 1.815,2.024 2.838,3.147 3.234,3.552 7.217,7.751 11.811,11.761 3.605,3.23 7.176,5.974 10.375,8.284 L 11.382,7.979 C 7.801,6.073 3.88,3.459 0,0" /></g><g
           transform="translate(744.8916,878.1523)"
           id="g1199"><path
             id="path1201"
             style="fill:#000000;fill-opacity:1;fill-rule:nonzero;stroke:none"
             d="m 0,0 c -0.287,1.359 -6.601,0.653 -14.627,-3.619 l 2.592,-5.968 C -4.893,-4.427 0.386,-1.428 0,0" /></g><g
           transform="translate(660.269,859.5361)"
           id="g1203"><path
             id="path1205"
             style="fill:#000000;fill-opacity:1;fill-rule:nonzero;stroke:none"
             d="M 0,0 C 0.198,-1.432 5.876,-1.877 14.045,-3.369 L 14.554,3.09 C 5.68,3.446 -0.264,1.354 0,0" /></g><g
           transform="translate(804.5137,763.354)"
           id="g1207"><path
             id="path1209"
             style="fill:#000000;fill-opacity:1;fill-rule:nonzero;stroke:none"
             d="m 0,0 c -4.85,-1.942 -9,-4.577 -12.117,-7.044 -2.466,3.16 -6.025,6.794 -10.533,9.83 -3.116,2.133 -6.209,3.653 -8.996,4.692 l -1.838,-4.226 c 2.601,-1.398 5.555,-3.096 8.571,-5.173 3.844,-2.573 7.196,-5.352 9.876,-7.655 0.897,-0.772 1.72,-1.488 2.458,-2.127 0.828,0.451 1.732,0.944 2.704,1.464 3.073,1.645 6.816,3.553 10.943,5.194 3.259,1.344 6.381,2.369 9.144,3.188 L 9.775,2.75 C 6.839,2.292 3.502,1.434 0,0" /></g><g
           transform="translate(825.3262,765.1782)"
           id="g1211"><path
             id="path1213"
             style="fill:#000000;fill-opacity:1;fill-rule:nonzero;stroke:none"
             d="m 0,0 c 0.112,0.979 -4.455,1.955 -11.037,0.926 l 0.436,-4.608 C -4.431,-1.853 -0.059,-1.049 0,0" /></g><g
           transform="translate(762.0039,772.0967)"
           id="g1215"><path
             id="path1217"
             style="fill:#000000;fill-opacity:1;fill-rule:nonzero;stroke:none"
             d="m 0,0 c -0.191,-1.009 3.669,-2.612 9.025,-5.49 l 1.839,4.225 C 4.755,1.012 0.127,0.971 0,0" /></g><g
           transform="translate(502.7671,869.6284)"
           id="g1219"><path
             id="path1221"
             style="fill:#000000;fill-opacity:1;fill-rule:nonzero;stroke:none"
             d="m 0,0 c -4.85,-1.942 -9,-4.577 -12.118,-7.044 -2.465,3.16 -6.024,6.794 -10.532,9.83 -3.116,2.133 -6.21,3.653 -8.996,4.692 l -1.839,-4.226 c 2.602,-1.398 5.556,-3.096 8.572,-5.173 3.844,-2.573 7.196,-5.352 9.875,-7.655 0.898,-0.772 1.72,-1.488 2.459,-2.127 0.828,0.451 1.732,0.944 2.704,1.464 3.073,1.646 6.816,3.553 10.943,5.194 3.259,1.344 6.381,2.369 9.144,3.188 L 9.775,2.75 C 6.839,2.292 3.502,1.435 0,0" /></g><g
           transform="translate(523.5796,871.4526)"
           id="g1223"><path
             id="path1225"
             style="fill:#000000;fill-opacity:1;fill-rule:nonzero;stroke:none"
             d="m 0,0 c 0.112,0.979 -4.455,1.955 -11.038,0.926 l 0.437,-4.608 C -4.431,-1.853 -0.059,-1.049 0,0" /></g><g
           transform="translate(460.2568,878.3711)"
           id="g1227"><path
             id="path1229"
             style="fill:#000000;fill-opacity:1;fill-rule:nonzero;stroke:none"
             d="m 0,0 c -0.191,-1.009 3.669,-2.612 9.025,-5.49 l 1.84,4.225 C 4.755,1.012 0.127,0.971 0,0" /></g><g
           transform="translate(362.2656,680.0229)"
           id="g1231"><path
             id="path1233"
             style="fill:#000000;fill-opacity:1;fill-rule:nonzero;stroke:none"
             d="m 0,0 c 0.834,2.123 1.878,4.173 2.939,6.187 0.527,1.01 1.051,2.017 1.55,3.027 0.47,0.981 1.018,2.118 1.768,3.117 0.745,1.003 1.781,1.964 3.084,2.505 1.293,0.568 2.674,0.688 3.916,0.669 1.271,-0.031 2.404,-0.124 3.618,-0.324 0.612,-0.118 1.24,-0.202 1.846,-0.357 l 1.806,-0.535 c 2.368,-0.839 4.548,-2.087 6.519,-3.513 1.977,-1.422 3.783,-3.005 5.481,-4.607 3.377,-3.194 6.453,-6.562 9.71,-8.904 l -5.561,-1.806 c 0.883,3.828 1.843,7.656 2.992,11.465 1.158,3.808 2.529,7.58 4.116,11.312 1.631,3.716 3.514,7.379 5.777,10.872 2.248,3.498 4.861,6.848 7.891,9.85 0.716,0.791 1.553,1.462 2.335,2.191 0.777,0.736 1.623,1.393 2.467,2.052 l 1.266,0.993 c 0.429,0.321 0.879,0.611 1.319,0.918 l 2.515,1.705 c 2.844,1.876 5.517,4.18 8.08,6.641 2.556,2.477 4.967,5.173 7.24,8.007 2.276,2.827 4.388,5.814 6.502,8.904 8.4,12.352 15.667,26.106 25.562,38.983 l 0.945,1.198 0.472,0.599 c 0.149,0.193 0.313,0.399 0.533,0.647 l 1.228,1.398 1.302,1.305 c 1.776,1.676 3.679,3.105 5.583,4.335 3.824,2.462 7.59,4.168 10.96,5.787 1.684,0.811 3.283,1.599 4.73,2.42 l 0.895,0.484 0.937,0.453 c 0.605,0.273 1.198,0.518 1.736,0.722 l 2.764,1.004 c 0.738,0.275 1.281,0.518 1.656,0.728 0.193,0.104 0.331,0.203 0.464,0.291 0.464,0.332 0.953,0.697 1.452,1.035 2.022,1.351 4.345,2.641 7.114,3.443 2.758,0.801 5.949,1.03 8.868,0.455 1.471,-0.254 2.833,-0.703 4.123,-1.212 0.612,-0.277 1.266,-0.538 1.833,-0.851 l 0.867,-0.464 0.216,-0.117 c 0.052,-0.029 0.068,-0.037 0.015,-0.005 l -0.092,0.052 c -0.115,0.066 -0.275,0.119 -0.37,0.158 -0.451,0.154 -0.609,0.155 -0.679,0.151 -0.03,0.002 0.052,-0.014 0.221,0.009 0.322,0.028 0.887,0.159 1.481,0.36 1.207,0.401 2.575,1.07 3.845,1.834 1.268,0.762 2.483,1.674 3.346,2.52 0.429,0.41 0.755,0.826 0.85,0.973 l 1.414,2.467 c 0.549,0.925 1.121,1.871 1.912,2.968 0.387,0.536 0.864,1.147 1.527,1.838 0.695,0.665 1.539,1.594 3.558,2.396 0.258,0.094 0.519,0.178 0.782,0.251 0.298,0.073 0.608,0.133 0.916,0.177 0.601,0.099 1.282,0.088 1.921,0.034 1.247,-0.139 2.385,-0.585 3.113,-1.013 1.539,-0.904 2.209,-1.715 2.807,-2.383 1.095,-1.327 1.668,-2.36 2.239,-3.352 0.551,-0.989 1.028,-1.922 1.48,-2.835 l 1.271,-2.539 c 0.833,-1.689 1.724,-3.343 2.594,-5.011 1.777,-3.312 3.63,-6.578 5.526,-9.818 3.838,-6.452 8.017,-12.685 12.526,-18.676 2.269,-2.984 4.643,-5.885 7.071,-8.747 1.24,-1.406 2.464,-2.832 3.748,-4.2 1.239,-1.373 2.606,-2.754 3.992,-4.311 2.758,-3.073 5.31,-6.736 6.947,-10.782 0.823,-2.019 1.429,-4.116 1.811,-6.226 l 0.236,-1.248 c 0.009,-0.249 0.146,-0.497 0.213,-0.763 0.259,-0.526 0.573,-1.106 1.092,-1.695 0.969,-1.192 2.415,-2.379 3.87,-3.655 1.469,-1.274 3.048,-2.651 4.454,-4.358 0.358,-0.412 0.686,-0.875 1.007,-1.342 l 0.765,-1.105 c 0.216,-0.352 0.512,-0.669 0.781,-1.004 0.26,-0.338 0.558,-0.663 0.873,-0.984 1.222,-1.299 2.67,-2.537 4.13,-3.873 1.459,-1.327 2.934,-2.804 4.112,-4.536 1.187,-1.723 2.025,-3.683 2.456,-5.684 0.135,-1.014 0.348,-2.008 0.328,-3.013 0.008,-0.5 0.042,-0.998 0.027,-1.492 l -0.111,-1.478 c -0.03,-0.493 -0.089,-0.99 -0.097,-1.408 0,-0.448 0.071,-0.912 0.167,-1.37 0.223,-0.896 0.498,-1.865 1.212,-2.525 -0.422,0.247 -0.739,0.649 -1.008,1.057 -0.271,0.414 -0.496,0.856 -0.686,1.318 -0.188,0.461 -0.339,0.942 -0.421,1.455 -0.071,0.544 -0.082,1.013 -0.128,1.483 l -0.111,1.414 c -0.059,0.467 -0.164,0.926 -0.243,1.385 -0.121,0.929 -0.464,1.795 -0.713,2.669 -0.677,1.695 -1.585,3.231 -2.774,4.548 -1.184,1.324 -2.614,2.432 -4.163,3.506 -1.544,1.081 -3.199,2.144 -4.816,3.455 -0.408,0.32 -0.81,0.656 -1.197,1.034 -0.392,0.367 -0.789,0.724 -1.143,1.153 l -1.025,1.165 c -0.265,0.299 -0.527,0.598 -0.841,0.88 -1.194,1.149 -2.654,2.176 -4.236,3.252 -1.576,1.097 -3.27,2.189 -4.951,3.809 -0.841,0.782 -1.649,1.787 -2.344,2.934 -0.308,0.621 -0.647,1.222 -0.841,1.922 l -0.471,1.556 c -0.488,1.644 -1.106,3.224 -1.882,4.715 -1.557,2.995 -3.723,5.575 -6.329,8.026 -1.281,1.23 -2.733,2.483 -4.196,3.86 -1.468,1.333 -2.876,2.726 -4.302,4.106 -2.816,2.793 -5.502,5.715 -8.122,8.696 -2.597,2.999 -5.116,6.067 -7.516,9.226 -2.392,3.164 -4.682,6.399 -6.904,9.681 -2.205,3.291 -4.307,6.647 -6.322,10.05 -0.99,1.709 -2.002,3.41 -2.953,5.14 l -1.433,2.574 c -0.437,0.797 -0.875,1.562 -1.295,2.239 -0.404,0.669 -0.858,1.278 -1.008,1.426 -0.034,0.055 -0.054,-0.062 0.644,-0.488 0.317,-0.176 0.984,-0.483 1.756,-0.548 0.398,-0.062 0.836,-0.026 1.201,0.011 0.19,0.023 0.38,0.064 0.56,0.115 0.149,0.033 0.297,0.077 0.441,0.131 1.112,0.46 1.209,0.735 1.241,0.709 0.004,-0.011 -0.123,-0.155 -0.287,-0.41 -0.323,-0.478 -0.739,-1.19 -1.148,-1.939 l -1.383,-2.594 c -0.875,-1.521 -1.791,-2.6 -2.704,-3.572 -1.833,-1.914 -3.706,-3.355 -5.693,-4.656 -1.994,-1.285 -4.086,-2.372 -6.515,-3.256 -1.226,-0.434 -2.529,-0.821 -4.119,-1.048 -0.785,-0.113 -1.67,-0.179 -2.662,-0.144 -1.03,0.06 -2.155,0.186 -3.509,0.689 -0.323,0.116 -0.693,0.292 -1.028,0.456 l -0.505,0.257 -0.413,0.209 c -0.277,0.157 -0.534,0.224 -0.795,0.353 -0.51,0.176 -0.99,0.332 -1.425,0.383 -0.878,0.148 -1.63,0.063 -2.57,-0.21 -0.932,-0.302 -2.047,-0.857 -3.217,-1.659 l -0.898,-0.648 c -0.646,-0.48 -1.309,-0.92 -1.959,-1.286 -1.302,-0.741 -2.539,-1.254 -3.603,-1.662 l -2.667,-0.987 c -0.364,-0.139 -0.659,-0.269 -0.932,-0.392 l -0.364,-0.178 -0.376,-0.208 c -1.9,-1.092 -3.759,-2.016 -5.543,-2.889 -3.562,-1.748 -6.851,-3.223 -9.518,-4.945 -1.339,-0.853 -2.529,-1.751 -3.567,-2.713 l -0.747,-0.736 -0.683,-0.772 c -0.105,-0.108 -0.243,-0.278 -0.39,-0.466 l -0.426,-0.534 -0.852,-1.067 C 116.599,89.305 109.062,75.831 99.698,62.964 97.373,59.75 94.891,56.533 92.187,53.469 89.498,50.401 86.63,47.454 83.522,44.696 80.413,41.94 77.042,39.394 73.326,37.209 L 70.97,35.796 c -0.364,-0.225 -0.741,-0.433 -1.097,-0.67 L 68.822,34.388 C 68.118,33.899 67.406,33.417 66.754,32.856 66.1,32.299 65.382,31.815 64.763,31.211 59.516,26.698 55.395,20.762 51.902,14.345 48.5,7.853 45.767,0.831 43.42,-6.38 l -1.717,-5.279 -3.845,3.474 c -3.79,3.425 -6.48,7.149 -9.371,10.513 -2.838,3.376 -5.849,6.414 -9.485,8.316 l -1.397,0.623 c -0.474,0.191 -0.966,0.317 -1.453,0.485 -0.996,0.31 -2.118,0.549 -3.109,0.704 C 11.001,12.797 9.335,12.438 7.894,10.924 7.157,10.201 6.564,9.358 5.896,8.379 5.235,7.437 4.559,6.516 3.884,5.599 2.542,3.761 1.199,1.94 0,0" /></g><g
           transform="translate(684.2051,661.6416)"
           id="g1235"><path
             id="path1237"
             style="fill:#000000;fill-opacity:1;fill-rule:nonzero;stroke:none"
             d="m 0,0 c 1.365,3.78 3.026,7.342 4.751,10.855 0.876,1.748 1.77,3.481 2.698,5.19 0.452,0.863 0.934,1.705 1.407,2.553 l 0.711,1.27 c 0.218,0.403 0.537,0.914 0.773,1.312 0.486,0.809 0.96,1.624 1.135,2.12 0.026,0.096 0.061,0.209 -0.004,0.104 0,0 -0.091,-0.193 -0.117,-0.351 -0.041,-0.165 -0.07,-0.378 -0.07,-0.568 10e-4,-0.054 -0.004,-0.3 0.019,-0.485 0.021,-0.196 0.06,-0.392 0.115,-0.579 l 0.045,-0.138 c 0,0 -0.005,0.014 -0.007,0.02 l -0.019,0.054 -0.039,0.108 -0.075,0.216 -0.151,0.434 -0.295,0.872 c -0.187,0.593 -0.308,1.254 -0.452,1.885 -0.13,0.647 -0.152,1.359 -0.212,2.041 0.009,0.709 0.016,1.432 0.108,2.149 0.115,0.717 0.22,1.45 0.443,2.127 0.371,1.415 1.011,2.61 1.612,3.691 0.616,1.052 1.235,1.953 1.772,2.747 1.121,1.568 1.818,2.722 2.185,3.77 l 2.334,6.662 5.238,-4.222 c 0.928,-0.749 1.87,-1.496 2.756,-2.283 0.793,-0.857 1.641,-1.69 2.357,-2.593 0.647,-0.928 1.354,-1.845 1.923,-2.794 0.532,-0.955 1.131,-1.903 1.566,-2.877 1.854,-3.879 2.96,-7.762 3.862,-11.533 0.892,-3.78 1.574,-7.463 2.427,-11.072 C 39.647,7.067 40.673,3.545 42.447,0 39.04,2.088 36.412,5.398 34.296,8.78 c -2.122,3.416 -3.756,7.01 -5.337,10.439 -1.574,3.432 -3.064,6.751 -4.795,9.612 -0.432,0.724 -0.904,1.358 -1.332,2.049 -0.453,0.659 -0.971,1.212 -1.437,1.829 -0.508,0.555 -1.034,1.053 -1.532,1.597 l -1.674,1.33 7.572,2.439 c -0.947,-2.604 -2.453,-4.684 -3.605,-6.232 -0.597,-0.77 -1.109,-1.44 -1.511,-2.032 -0.376,-0.58 -0.675,-1.096 -0.854,-1.54 -0.224,-0.453 -0.301,-0.905 -0.389,-1.421 0.01,-0.281 -0.028,-0.542 -0.02,-0.85 0.036,-0.318 0.019,-0.623 0.074,-0.966 l 0.097,-0.523 0.046,-0.264 0.022,-0.133 0.011,-0.067 0.006,-0.033 0.005,-0.023 0.051,-0.184 c 0.065,-0.246 0.114,-0.501 0.144,-0.756 0.031,-0.246 0.043,-0.551 0.032,-0.666 -0.012,-0.31 -0.05,-0.644 -0.105,-0.928 -0.09,-0.392 -0.227,-0.825 -0.328,-1.044 -0.231,-0.559 -0.426,-0.874 -0.629,-1.203 -0.783,-1.186 -1.47,-1.922 -2.121,-2.676 L 14.786,14.408 C 14.133,13.684 13.489,12.954 12.815,12.245 11.492,10.811 10.134,9.401 8.758,8.005 5.98,5.232 3.139,2.507 0,0" /></g><g
           transform="translate(804.0176,665.1382)"
           id="g1239"><path
             id="path1241"
             style="fill:#000000;fill-opacity:1;fill-rule:nonzero;stroke:none"
             d="m 0,0 c 1.155,3.675 2.631,7.255 3.711,10.882 0.281,0.904 0.532,1.801 0.77,2.714 l 0.765,2.807 c 0.541,1.864 1.101,3.729 1.73,5.572 2.458,7.397 5.679,14.599 9.639,21.447 3.989,6.825 8.709,13.302 14.16,19.159 l 1.907,2.072 c 0.606,0.674 1.205,1.356 1.796,2.05 1.178,1.388 2.326,2.815 3.443,4.273 1.13,1.468 2.18,2.928 3.312,4.473 l 1.774,2.391 1.843,2.372 c 2.517,3.141 5.225,6.249 8.386,9.102 3.151,2.851 6.743,5.513 10.949,7.498 4.185,1.999 9.059,3.081 13.845,3.036 1.187,-0.056 2.407,-0.014 3.561,-0.215 l 1.752,-0.239 0.437,-0.062 0.219,-0.032 0.109,-0.016 0.055,-0.008 c -0.059,0.014 -0.299,0.057 -0.437,0.073 -1.273,0.142 -1.889,-0.071 -2.082,-0.099 -0.101,-0.024 -0.099,-0.024 -0.009,0.002 l 0.27,0.076 c 1.957,0.51 4.427,1.311 7.996,1.052 1.775,-0.151 3.787,-0.738 5.47,-1.731 1.679,-0.975 3.069,-2.263 4.024,-3.49 0.552,-0.637 0.892,-1.224 1.326,-1.852 0.195,-0.307 0.347,-0.598 0.52,-0.899 l 0.25,-0.45 0.124,-0.226 0.062,-0.113 c 0.024,-0.047 -0.011,0.026 -0.032,0.07 l -0.074,0.14 c -0.465,0.793 -0.858,1.169 -1.215,1.461 -0.32,0.262 -0.574,0.395 -0.75,0.484 -0.377,0.17 -0.529,0.208 -0.798,0.248 -0.274,0.002 -0.585,0.124 -1.707,-0.246 l 1.195,0.51 2.636,1.113 5.284,2.194 c 7.046,2.925 14.083,5.867 21.16,8.716 l 1.423,0.572 1.415,-0.043 c 5.162,-0.155 10.325,-0.261 15.487,-0.456 l 3.636,-0.138 1.9,-2.888 c 3.348,-5.085 6.823,-10.02 10.453,-14.748 3.619,-4.737 7.474,-9.212 11.63,-13.246 4.144,-4.046 8.628,-7.641 13.488,-10.491 l 1.827,-1.064 1.883,-0.943 0.942,-0.475 c 0.313,-0.154 0.56,-0.264 0.857,-0.389 0.571,-0.247 1.18,-0.472 1.82,-0.689 2.55,-0.87 5.648,-1.625 8.801,-2.618 l 1.618,-0.509 0.826,-1.005 c 3.06,-3.722 5.81,-7.455 8.622,-11.064 2.821,-3.591 5.653,-7.093 8.731,-10.269 l 0.575,-0.593 0.461,-0.413 c 0.281,-0.3 0.644,-0.543 1.004,-0.798 0.711,-0.52 1.588,-0.962 2.523,-1.397 1.893,-0.861 4.205,-1.572 6.555,-2.715 2.343,-1.126 4.727,-2.854 6.327,-5.102 1.633,-2.23 2.471,-4.744 3.047,-7.164 l -1.4,1.273 c 1.908,-0.465 3.732,-1.536 5.02,-2.963 1.302,-1.42 2.151,-3.063 2.734,-4.71 0.588,-1.651 0.962,-3.315 1.274,-4.971 0.318,-1.656 0.541,-3.314 0.772,-4.973 -0.578,1.571 -1.143,3.15 -1.738,4.697 -0.604,1.543 -1.265,3.056 -2.072,4.431 -0.809,1.367 -1.748,2.609 -2.882,3.469 -1.13,0.866 -2.409,1.342 -3.784,1.469 l -0.917,0.084 -0.481,1.19 c -0.81,2 -1.835,3.828 -3.168,5.193 -1.333,1.372 -2.967,2.239 -4.907,2.869 -1.937,0.656 -4.157,1.055 -6.622,1.793 -1.234,0.39 -2.516,0.834 -3.795,1.512 -0.641,0.336 -1.276,0.686 -1.876,1.148 l -0.91,0.661 -0.71,0.583 c -3.771,3.104 -7.202,6.487 -10.451,9.921 -3.261,3.418 -6.371,6.897 -9.475,10.123 l 2.443,-1.514 c -2.83,0.658 -5.835,1.082 -9.24,1.964 -0.848,0.225 -1.715,0.477 -2.595,0.782 -0.428,0.146 -0.904,0.321 -1.301,0.481 l -1.174,0.491 -2.352,0.988 -2.282,1.121 c -6.105,2.994 -11.538,7.032 -16.525,11.37 -4.994,4.359 -9.389,9.207 -13.513,14.163 -4.111,4.974 -7.855,10.148 -11.466,15.337 l 5.536,-3.025 c -5.164,0.052 -10.327,0.193 -15.491,0.286 l 2.838,0.531 c -7.092,-2.972 -14.224,-5.849 -21.346,-8.743 l -5.343,-2.171 -2.677,-1.068 -1.463,-0.577 c -2.029,-0.69 -3.322,-0.608 -4.543,-0.502 -1.22,0.147 -2.314,0.422 -3.555,1.003 -0.611,0.289 -1.276,0.673 -1.975,1.23 -0.716,0.599 -1.466,1.312 -2.154,2.533 l -0.549,1.029 c -0.122,0.151 -0.235,0.417 -0.329,0.492 -0.197,0.304 -0.279,0.298 -0.235,0.305 0.037,-0.015 0.178,-0.024 0.047,0.012 -0.272,0.071 -1.594,-0.066 -3.326,-0.507 l -0.08,-0.019 c -0.032,-0.008 0.03,0.009 0.003,0.003 l -0.355,-0.092 c -0.425,-0.085 -1.281,-0.341 -2.793,-0.17 l -1.036,0.173 -1.087,0.192 c -0.73,0.182 -1.441,0.136 -2.161,0.22 -2.867,0.14 -5.68,-0.357 -8.481,-1.5 C 63.645,83.003 58.34,78.228 53.438,72.906 L 51.613,70.858 49.816,68.75 c -1.223,-1.474 -2.553,-3.014 -3.885,-4.48 -1.34,-1.478 -2.719,-2.931 -4.143,-4.352 -0.712,-0.71 -1.437,-1.41 -2.173,-2.102 L 37.451,55.835 C 34.713,53.395 32.096,50.805 29.63,48.063 27.146,45.336 24.778,42.484 22.555,39.506 20.309,36.542 18.226,33.439 16.263,30.247 14.27,27.068 12.438,23.774 10.715,20.406 9.835,18.73 9.028,17.016 8.215,15.298 L 7.019,12.708 C 6.618,11.815 6.196,10.92 5.756,10.05 3.94,6.583 1.933,3.333 0,0" /></g><g
           transform="translate(525.1494,678.2231)"
           id="g1243"><path
             id="path1245"
             style="fill:#000000;fill-opacity:1;fill-rule:nonzero;stroke:none"
             d="m 0,0 4.588,2.785 4.599,2.721 9.171,5.407 c 6.103,3.589 12.195,7.141 18.18,10.795 5.974,3.666 11.914,7.342 17.522,11.316 2.82,1.955 5.557,3.996 8.125,6.121 2.566,2.106 4.946,4.377 6.836,6.667 l 2.318,2.806 3.28,-1.23 c 6.957,-2.607 13.622,-5.449 20.253,-8.596 6.618,-3.124 13.1,-6.569 19.399,-10.375 6.27,-3.848 12.392,-8.049 17.914,-13.083 2.73,-2.541 5.352,-5.267 7.449,-8.43 1.041,-1.578 1.97,-3.252 2.609,-5.04 0.624,-1.785 0.919,-3.715 0.664,-5.525 -0.316,1.804 -0.993,3.443 -1.987,4.881 -0.957,1.453 -2.106,2.762 -3.365,3.961 -2.531,2.39 -5.37,4.454 -8.317,6.361 -5.923,3.79 -12.239,7.023 -18.65,10.064 -6.406,3.059 -12.954,5.865 -19.527,8.611 -6.57,2.704 -13.261,5.375 -19.842,7.793 l 5.597,1.576 C 71.582,33.261 65.5,29.066 59.365,25.067 56.265,23.125 53.143,21.278 49.954,19.578 46.775,17.856 43.563,16.229 40.31,14.703 33.817,11.626 27.206,8.868 20.494,6.391 17.13,5.17 13.757,3.986 10.338,2.924 L 5.202,1.367 C 3.47,0.9 1.752,0.402 0,0" /></g><g
           transform="translate(889.1621,679.5449)"
           id="g1247"><path
             id="path1249"
             style="fill:#000000;fill-opacity:1;fill-rule:nonzero;stroke:none"
             d="m 0,0 c 4.417,3.047 8.885,5.858 13.327,8.672 l 13.26,8.322 c 4.357,2.794 8.705,5.553 12.785,8.507 2.058,1.445 4.045,2.955 5.899,4.501 1.858,1.526 3.554,3.176 4.866,4.752 l 2.334,2.804 3.263,-1.228 c 5.204,-1.956 10.14,-4.084 15.061,-6.475 4.91,-2.362 9.705,-4.999 14.359,-7.916 4.627,-2.956 9.139,-6.194 13.179,-10.085 1.998,-1.962 3.903,-4.077 5.415,-6.509 0.756,-1.209 1.4,-2.511 1.828,-3.881 0.414,-1.367 0.584,-2.835 0.321,-4.176 -0.584,2.691 -2.375,4.624 -4.243,6.322 -1.917,1.682 -4.059,3.118 -6.267,4.452 -4.442,2.646 -9.147,4.917 -13.916,7.067 -4.761,2.17 -9.621,4.166 -14.487,6.152 -4.861,1.947 -9.822,3.903 -14.649,5.671 l 5.597,1.576 C 53.871,23.622 49.296,20.521 44.678,17.545 40.016,14.67 35.247,12.178 30.358,9.988 25.481,7.783 20.515,5.841 15.463,4.15 10.4,2.487 5.282,0.99 0,0" /></g></g></g><g
       transform="matrix(0.20385219,0,0,0.20385219,-38.752333,-73.838844)"
       id="g1251"><g
         id="g1253"><g
           id="g1259"><g
             id="g1261"><path
               id="path1269"
               style="fill:url(#linearGradient1267);stroke:none"
               d="m 312.086,661.641 c 0,-74.281 177.676,-172.357 393.343,-172.357 v 0 c 215.667,0 387.657,98.076 387.657,172.357 v 0 z" /></g></g></g></g><g
       transform="matrix(0.20385219,0,0,0.20385219,-38.752333,-73.838844)"
       id="g1271"><g
         clip-path="url(#clipPath1277)"
         id="g1273"><g
           id="g1279"><g
             id="g1281" /><g
             id="g1293"><g
               style="opacity:0.30999804"
               id="g1291"
               clip-path="url(#clipPath1285)"><g
                 id="g1289"
                 transform="translate(640.0586,644.8174)"><path
                   id="path1287"
                   style="fill:#ffffff;fill-opacity:1;fill-rule:nonzero;stroke:none"
                   d="m 0,0 c 0,-1.657 -58.65,-3 -131,-3 -72.349,0 -131,1.343 -131,3 0,1.657 58.651,3 131,3 C -58.65,3 0,1.657 0,0" /></g></g></g></g><g
           id="g1295"><g
             id="g1297" /><g
             id="g1309"><g
               style="opacity:0.30999804"
               id="g1307"
               clip-path="url(#clipPath1301)"><g
                 id="g1305"
                 transform="translate(717.2969,626.7373)"><path
                   id="path1303"
                   style="fill:#ffffff;fill-opacity:1;fill-rule:nonzero;stroke:none"
                   d="m 0,0 c 0,-0.828 -35.964,-1.5 -80.328,-1.5 -44.364,0 -80.328,0.672 -80.328,1.5 0,0.829 35.964,1.5 80.328,1.5 C -35.964,1.5 0,0.829 0,0" /></g></g></g></g><g
           id="g1311"><g
             id="g1313" /><g
             id="g1325"><g
               style="opacity:0.30999804"
               id="g1323"
               clip-path="url(#clipPath1317)"><g
                 id="g1321"
                 transform="translate(971.6436,586.2524)"><path
                   id="path1319"
                   style="fill:#ffffff;fill-opacity:1;fill-rule:nonzero;stroke:none"
                   d="m 0,0 c 0,-0.829 -35.964,-1.5 -80.328,-1.5 -44.363,0 -80.328,0.671 -80.328,1.5 0,0.828 35.965,1.5 80.328,1.5 C -35.964,1.5 0,0.828 0,0" /></g></g></g></g><g
           id="g1327"><g
             id="g1329" /><g
             id="g1341"><g
               style="opacity:0.30999804"
               id="g1339"
               clip-path="url(#clipPath1333)"><g
                 id="g1337"
                 transform="translate(865.6641,567.5283)"><path
                   id="path1335"
                   style="fill:#ffffff;fill-opacity:1;fill-rule:nonzero;stroke:none"
                   d="m 0,0 c 0,-0.828 -35.964,-1.5 -80.328,-1.5 -44.364,0 -80.329,0.672 -80.329,1.5 0,0.829 35.965,1.5 80.329,1.5 C -35.964,1.5 0,0.829 0,0" /></g></g></g></g><g
           id="g1343"><g
             id="g1345" /><g
             id="g1357"><g
               style="opacity:0.30999804"
               id="g1355"
               clip-path="url(#clipPath1349)"><g
                 id="g1353"
                 transform="translate(624.9585,550.6997)"><path
                   id="path1351"
                   style="fill:#ffffff;fill-opacity:1;fill-rule:nonzero;stroke:none"
                   d="m 0,0 c 0,-0.829 -35.964,-1.5 -80.328,-1.5 -44.364,0 -80.329,0.671 -80.329,1.5 0,0.828 35.965,1.5 80.329,1.5 C -35.964,1.5 0,0.828 0,0" /></g></g></g></g></g></g></g></svg>